<svg xmlns="http://www.w3.org/2000/svg" viewBox="0 0 57.06 58.19"><defs><style>.cls-1,.cls-3,.cls-8{fill:#fff;}.cls-2{fill:#321e15;}.cls-3,.cls-8{font-size:4.57px;font-family:Lato-Regular, Lato;}.cls-3{letter-spacing:0.07em;}.cls-4{letter-spacing:0.08em;}.cls-5{letter-spacing:0.06em;}.cls-6{letter-spacing:0.08em;}.cls-7{fill:#e3cfab;}.cls-8{letter-spacing:0.06em;}.cls-9{letter-spacing:0.07em;}.cls-10{letter-spacing:0.08em;}</style></defs><g id="OBJECTS"><path class="cls-1" d="M40.92,58.19H16.14A12.11,12.11,0,0,1,4,46.08L0,3.21A2.94,2.94,0,0,1,2.94,0H54.12a2.94,2.94,0,0,1,2.93,3.21L53,46.08A12.11,12.11,0,0,1,40.92,58.19Z"/><path class="cls-2" d="M52.6,4.32l-2.14,22.8-1,10.68v0l-.75,8.06v.21a7.8,7.8,0,0,1-7.79,7.78H16.14a7.8,7.8,0,0,1-7.79-7.78v-.21L7.6,37.82v0l-1-10.68L4.46,4.32Z"/><text class="cls-3" transform="translate(18.79 17.51)">E<tspan class="cls-4" x="2.97" y="0">sp</tspan><tspan class="cls-5" x="8.24" y="0">r</tspan><tspan class="cls-6" x="10.18" y="0">esso</tspan></text><circle class="cls-7" cx="28.58" cy="39.48" r="14.31"/><text class="cls-8" transform="translate(25.01 37.13)">I<tspan class="cls-9" x="1.58" y="0">c</tspan><tspan class="cls-6" x="4.08" y="0">e</tspan><tspan class="cls-10"><tspan x="-4.01" y="5.49">C</tspan><tspan class="cls-5" x="-0.61" y="5.49">r</tspan><tspan class="cls-6" x="1.33" y="5.49">eam</tspan></tspan></text></g></svg>