<svg xmlns="http://www.w3.org/2000/svg" viewBox="0 0 57.06 58.2"><defs><style>.cls-1,.cls-13,.cls-16,.cls-5{fill:#fff;}.cls-2{fill:#edb77c;}.cls-3{fill:#321e15;}.cls-4{fill:#8a501c;}.cls-13,.cls-16,.cls-5{font-size:4.57px;font-family:Lato-Regular, Lato;}.cls-15,.cls-5{letter-spacing:0.08em;}.cls-6{letter-spacing:0.06em;}.cls-7{letter-spacing:0.08em;}.cls-8{letter-spacing:0.02em;}.cls-9{letter-spacing:0.07em;}.cls-10{letter-spacing:0.08em;}.cls-11{letter-spacing:0.06em;}.cls-12{letter-spacing:0.08em;}.cls-13{letter-spacing:0.07em;}.cls-14{letter-spacing:0.06em;}.cls-16{letter-spacing:0.06em;}.cls-17{letter-spacing:0.07em;}.cls-18{letter-spacing:0.08em;}</style></defs><g id="OBJECTS"><path class="cls-1" d="M40.91,58.2H16.14A12.11,12.11,0,0,1,4,46.09L0,3.21A2.94,2.94,0,0,1,2.93,0H54.12A2.93,2.93,0,0,1,57,3.21L53,46.09A12.11,12.11,0,0,1,40.91,58.2Z"/><path class="cls-2" d="M52.6,4.32,51.15,19.7l-1.69,18v.1l-.75,8.06v.21a7.79,7.79,0,0,1-7.79,7.79H16.13a7.79,7.79,0,0,1-7.78-7.79v-.21L7.6,37.82v-.1L5.9,19.7,4.45,4.32Z"/><path class="cls-3" d="M49.46,37.82l-.76,8.06v.21a7.8,7.8,0,0,1-7.78,7.79H16.14a7.8,7.8,0,0,1-7.79-7.79v-.21L7.6,37.82Z"/><polygon class="cls-4" points="50.27 29.1 49.46 37.72 7.59 37.72 6.78 29.1 50.27 29.1"/><text class="cls-5" transform="translate(10.62 15.86)">(<tspan class="cls-6" x="1.59" y="0">P</tspan><tspan class="cls-7" x="4.63" y="0">anela+</tspan><tspan class="cls-8" x="20.06" y="0">W</tspan><tspan class="cls-9" x="24.9" y="0">a</tspan><tspan class="cls-10" x="27.51" y="0">t</tspan><tspan x="29.5" y="0">e</tspan><tspan class="cls-11" x="32.28" y="0">r</tspan><tspan class="cls-12" x="34.22" y="0">)</tspan><tspan x="4.35" y="5.49">Aguapanela</tspan></text><text class="cls-13" transform="translate(18.22 47.29)">E<tspan class="cls-7" x="2.97" y="0">sp</tspan><tspan class="cls-14" x="8.24" y="0">r</tspan><tspan class="cls-15" x="10.18" y="0">esso</tspan></text><text class="cls-16" transform="translate(21.41 34.63)">S<tspan class="cls-17" x="2.77" y="0">w</tspan><tspan class="cls-15" x="6.69" y="0">e</tspan><tspan class="cls-18" x="9.47" y="0">e</tspan><tspan class="cls-15" x="12.24" y="0">t</tspan></text></g></svg>