<svg id="OBJECTS" xmlns="http://www.w3.org/2000/svg" viewBox="0 0 57.06 80"><defs><style>.cls-1,.cls-3{fill:#fff;}.cls-1{opacity:0.5;}.cls-2{fill:#472210;}.cls-3{font-size:4.57px;font-family:Lato-Regular, Lato;letter-spacing:0.07em;}.cls-4{letter-spacing:0.06em;}.cls-5{letter-spacing:0.08em;}.cls-6{font-size:10px;fill:#936544;font-family:TrebuchetMS, Trebuchet MS;}</style></defs><title>_</title><path class="cls-1" d="M52.66,0H4.4A2.77,2.77,0,0,0,1.64,3L5.43,43.45A11.42,11.42,0,0,0,16.85,54.87H40.2A11.42,11.42,0,0,0,51.62,43.45L55.41,3A2.77,2.77,0,0,0,52.66,0ZM52.6,2.65,51.15,18l-.23,2.46L49.46,36.05v.1l-.75,8.06v.21a7.78,7.78,0,0,1-7.79,7.78H16.13a7.78,7.78,0,0,1-7.78-7.78v-.21L7.6,36.15v-.1L6.13,20.49,5.9,18,4.45,2.65H52.6Z"/><path class="cls-2" d="M52.6,2.64h0L51.15,18l-.23,2.46L49.46,36.05v.1l-.75,8.06v.21a7.78,7.78,0,0,1-7.79,7.78H16.13a7.78,7.78,0,0,1-7.78-7.78v-.21L7.6,36.15v-.1L6.13,20.49,5.9,18,4.45,2.65H52.6Z"/><text class="cls-3" transform="translate(20.94 28.78)">Co<tspan class="cls-4" x="6.28" y="0">ff</tspan><tspan class="cls-5" x="9.62" y="0">ee</tspan></text><text class="cls-6" transform="translate(16.6 71.03)">Black</text></svg>