<svg xmlns="http://www.w3.org/2000/svg" viewBox="0 0 57.06 58.19"><defs><style>.cls-1{fill:#321e15;}.cls-2,.cls-4,.cls-8{fill:#fff;}.cls-3{fill:#c3e9eb;}.cls-4,.cls-8{font-size:4.57px;font-family:Lato-Regular, Lato;}.cls-4{letter-spacing:0.07em;}.cls-5{letter-spacing:0.08em;}.cls-6{letter-spacing:0.06em;}.cls-7{letter-spacing:0.08em;}.cls-8{letter-spacing:0.06em;}.cls-9{letter-spacing:0.07em;}.cls-10{letter-spacing:0.07em;}.cls-11{letter-spacing:0.02em;}.cls-12{letter-spacing:0.07em;}.cls-13{letter-spacing:0.08em;}.cls-14{letter-spacing:0.08em;}.cls-15{letter-spacing:0.06em;}</style></defs><g id="OBJECTS"><polygon class="cls-1" points="52.6 4.31 51.16 19.69 50.92 22.15 6.13 22.15 5.91 19.69 4.46 4.31 52.6 4.31"/><path class="cls-2" d="M54.12,0H2.93A2.94,2.94,0,0,0,0,3.21L4,46.09A12.11,12.11,0,0,0,16.14,58.2H40.91A12.11,12.11,0,0,0,53,46.09L57,3.21A2.94,2.94,0,0,0,54.12,0Zm-3,19.69-.23,2.46H6.13L5.9,19.69,4.45,4.31H52.6Z"/><path class="cls-3" d="M50.92,22.15,49.46,37.71v.1l-.75,8.06v.21a7.79,7.79,0,0,1-7.79,7.79H16.13a7.79,7.79,0,0,1-7.78-7.79v-.21L7.6,37.81v-.1L6.13,22.15Z"/><text class="cls-4" transform="translate(18.23 14.98)">E<tspan class="cls-5" x="2.97" y="0">sp</tspan><tspan class="cls-6" x="8.24" y="0">r</tspan><tspan class="cls-7" x="10.18" y="0">esso</tspan></text><text class="cls-8" transform="translate(16.36 38.01)">H<tspan class="cls-9" x="3.79" y="0">o</tspan><tspan class="cls-7" x="6.7" y="0">t</tspan><tspan class="cls-10" x="8.71" y="0"> </tspan><tspan class="cls-11" x="10.18" y="0">W</tspan><tspan class="cls-12" x="15.02" y="0">a</tspan><tspan class="cls-13" x="17.63" y="0">t</tspan><tspan class="cls-14" x="19.63" y="0">e</tspan><tspan class="cls-15" x="22.41" y="0">r</tspan></text></g></svg>