<svg id="OBJECTS" xmlns="http://www.w3.org/2000/svg" viewBox="0 0 57.06 80"><defs><style>.cls-1,.cls-9{fill:#fff;}.cls-1{opacity:0.5;}.cls-2{fill:#472210;}.cls-3{fill:#e3cfab;}.cls-4,.cls-9{font-size:4.57px;font-family:Lato-Regular, Lato;}.cls-4{fill:#321e15;letter-spacing:0.06em;}.cls-5{letter-spacing:0.08em;}.cls-6{letter-spacing:0.08em;}.cls-7{letter-spacing:0.07em;}.cls-8{letter-spacing:0.08em;}.cls-9{letter-spacing:0.07em;}.cls-10{letter-spacing:0.06em;}.cls-11{font-size:10px;fill:#936544;font-family:TrebuchetMS, Trebuchet MS;}</style></defs><title>coffee</title><path class="cls-1" d="M51.62,43.45A11.42,11.42,0,0,1,40.2,54.87H16.85A11.42,11.42,0,0,1,5.43,43.45L1.64,3A2.77,2.77,0,0,1,4.4,0H52.66a2.77,2.77,0,0,1,2.75,3Z"/><path class="cls-2" d="M49.46,36.15l-.75,8.07v.21a7.8,7.8,0,0,1-7.79,7.78H16.14a7.8,7.8,0,0,1-7.79-7.78v-.21L7.6,36.15Z"/><polygon class="cls-3" points="51.16 18.04 49.47 36.05 7.59 36.05 5.91 18.04 51.16 18.04"/><text class="cls-4" transform="translate(17.77 25.2)">S<tspan class="cls-5" x="2.74" y="0">t</tspan><tspan class="cls-6" x="4.74" y="0">eamed </tspan><tspan class="cls-7"><tspan x="5.68" y="5.49">M</tspan><tspan class="cls-8" x="10.25" y="5.49">ilk</tspan></tspan></text><text class="cls-9" transform="translate(20.94 45.63)">Co<tspan class="cls-10" x="6.28" y="0">ff</tspan><tspan class="cls-6" x="9.62" y="0">ee</tspan></text><text class="cls-11" transform="translate(1.4 71.03)">Café au Lait</text></svg>