<svg xmlns="http://www.w3.org/2000/svg" viewBox="0 0 57.06 58.19"><defs><style>.cls-1,.cls-12,.cls-5{fill:#fff;}.cls-2{fill:#321e15;}.cls-3{fill:#ededed;}.cls-4{fill:#e3cfab;}.cls-10,.cls-12,.cls-5{font-size:4.57px;font-family:Lato-Regular, Lato;}.cls-5{letter-spacing:0.06em;}.cls-6{letter-spacing:0.08em;}.cls-7{letter-spacing:0.08em;}.cls-10,.cls-8{letter-spacing:0.07em;}.cls-9{letter-spacing:0.08em;}.cls-10{fill:#60462e;}.cls-11{letter-spacing:0.04em;}.cls-12{letter-spacing:0.07em;}.cls-13{letter-spacing:0.08em;}.cls-14{letter-spacing:0.06em;}</style></defs><g id="OBJECTS"><path class="cls-1" d="M40.92,58.19H16.14A12.11,12.11,0,0,1,4,46.08L0,3.21A2.94,2.94,0,0,1,2.94,0H54.12a2.94,2.94,0,0,1,2.93,3.21L53,46.08A12.11,12.11,0,0,1,40.92,58.19Z"/><path class="cls-1" d="M52.61,4.32,51.16,19.7l-1.69,18v.1l-.75,8.06v.21a7.79,7.79,0,0,1-7.79,7.79H16.14a7.79,7.79,0,0,1-7.78-7.79v-.21l-.75-8.06v-.1l-1.69-18L4.46,4.32Z"/><path class="cls-2" d="M49.46,37.82l-.75,8.06v.21a7.8,7.8,0,0,1-7.79,7.78H16.14a7.8,7.8,0,0,1-7.79-7.78v-.21L7.6,37.82Z"/><polygon class="cls-3" points="52.6 4.32 51.16 19.7 5.91 19.7 4.46 4.32 52.6 4.32"/><polygon class="cls-4" points="51.16 19.7 49.47 37.72 7.59 37.72 5.91 19.7 51.16 19.7"/><text class="cls-5" transform="translate(17.77 26.86)">S<tspan class="cls-6" x="2.74" y="0">t</tspan><tspan class="cls-7" x="4.74" y="0">eamed </tspan><tspan class="cls-8"><tspan x="5.68" y="5.49">M</tspan><tspan class="cls-9" x="10.25" y="5.49">ilk</tspan></tspan></text><text class="cls-10" transform="translate(16.44 13.32)">M<tspan class="cls-9" x="4.58" y="0">ilk </tspan><tspan class="cls-11" x="11.71" y="0">F</tspan><tspan class="cls-7" x="14.46" y="0">oam</tspan></text><text class="cls-12" transform="translate(18.23 47.29)">E<tspan class="cls-13" x="2.97" y="0">sp</tspan><tspan class="cls-14" x="8.24" y="0">r</tspan><tspan class="cls-7" x="10.18" y="0">esso</tspan></text></g></svg>