<svg id="OBJECTS" xmlns="http://www.w3.org/2000/svg" viewBox="0 0 57.06 80"><defs><style>.cls-1,.cls-12,.cls-2{fill:#fff;}.cls-1{opacity:0.5;}.cls-11,.cls-3,.cls-6{fill:#321e15;}.cls-4{fill:#ededed;}.cls-5{fill:#e3cfab;}.cls-11,.cls-12,.cls-6{font-size:4.57px;font-family:Lato-Regular, Lato;}.cls-6{letter-spacing:0.06em;}.cls-7{letter-spacing:0.08em;}.cls-8{letter-spacing:0.08em;}.cls-9{letter-spacing:0.07em;}.cls-10{letter-spacing:0.08em;}.cls-11{letter-spacing:0.04em;}.cls-12{letter-spacing:0.07em;}.cls-13{letter-spacing:0.08em;}.cls-14{letter-spacing:0.06em;}.cls-15{font-size:10px;fill:#936544;font-family:TrebuchetMS, Trebuchet MS;}</style></defs><title>_</title><path class="cls-1" d="M55.41,3,51.62,43.45A11.42,11.42,0,0,1,40.2,54.87H16.85A11.42,11.42,0,0,1,5.43,43.45L1.64,3A2.77,2.77,0,0,1,4.4,0H52.66A2.77,2.77,0,0,1,55.41,3Z"/><path class="cls-2" d="M52.6,2.65,51.15,18l-1.69,18v.1l-.75,8.06v.21a7.79,7.79,0,0,1-7.79,7.79H16.13a7.79,7.79,0,0,1-7.78-7.79v-.21L7.6,36.15v-.1L5.9,18,4.45,2.65Z"/><path class="cls-3" d="M49.46,36.15l-.76,8.07v.21a7.79,7.79,0,0,1-7.78,7.78H16.14a7.79,7.79,0,0,1-7.79-7.78v-.21L7.6,36.15Z"/><polygon class="cls-4" points="52.6 2.65 51.15 18.04 5.9 18.04 4.45 2.65 52.6 2.65"/><polygon class="cls-5" points="51.15 18.04 49.46 36.05 7.59 36.05 5.9 18.04 51.15 18.04"/><text class="cls-6" transform="translate(17.77 25.2)">S<tspan class="cls-7" x="2.74" y="0">t</tspan><tspan class="cls-8" x="4.74" y="0">eamed </tspan><tspan class="cls-9"><tspan x="5.68" y="5.49">M</tspan><tspan class="cls-10" x="10.25" y="5.49">ilk</tspan></tspan></text><text class="cls-11" transform="translate(22.29 11.66)">F<tspan class="cls-8" x="2.75" y="0">oam</tspan></text><text class="cls-12" transform="translate(18.22 45.63)">E<tspan class="cls-13" x="2.97" y="0">sp</tspan><tspan class="cls-14" x="8.24" y="0">r</tspan><tspan class="cls-8" x="10.18" y="0">esso</tspan></text><text class="cls-15" transform="translate(2.82 71.03)">Cappuccino</text></svg>