<svg id="OBJECTS" xmlns="http://www.w3.org/2000/svg" viewBox="0 0 57.06 80"><defs><style>.cls-1,.cls-2,.cls-7{fill:#fff;}.cls-1{opacity:0.5;}.cls-3{fill:#472210;}.cls-4{fill:#efeddf;}.cls-10,.cls-5,.cls-7{font-size:4.57px;font-family:Lato-Regular, Lato;}.cls-10,.cls-5{fill:#321e15;}.cls-5{letter-spacing:0.07em;}.cls-6{letter-spacing:0.08em;}.cls-7{letter-spacing:0.07em;}.cls-8{letter-spacing:0.06em;}.cls-9{letter-spacing:0.08em;}.cls-10{letter-spacing:0.07em;}.cls-11{letter-spacing:0.06em;}.cls-12{font-size:10px;fill:#936544;font-family:TrebuchetMS, Trebuchet MS;}</style></defs><title>_</title><path class="cls-1" d="M55.41,3,51.62,43.45A11.42,11.42,0,0,1,40.2,54.87H16.85A11.42,11.42,0,0,1,5.43,43.45L1.64,3A2.77,2.77,0,0,1,4.4,0H52.66A2.77,2.77,0,0,1,55.41,3Z"/><path class="cls-2" d="M52.6,2.65,51.15,18l-1.69,18v.1l-.75,8.06v.21a7.79,7.79,0,0,1-7.79,7.79H16.13a7.79,7.79,0,0,1-7.78-7.79v-.21L7.6,36.15v-.1L5.9,18,4.45,2.65Z"/><path class="cls-3" d="M49.45,36.15l-.75,8.07v.21a7.79,7.79,0,0,1-7.79,7.78H16.14a7.79,7.79,0,0,1-7.79-7.78v-.21L7.6,36.15Z"/><polygon class="cls-4" points="50.27 27.43 49.46 36.05 7.59 36.05 6.78 27.43 50.27 27.43"/><text class="cls-5" transform="translate(23.44 16.2)">M<tspan class="cls-6" x="4.58" y="0">ilk</tspan></text><text class="cls-7" transform="translate(20.94 45.63)">Co<tspan class="cls-8" x="6.28" y="0">ff</tspan><tspan class="cls-9" x="9.62" y="0">ee</tspan></text><text class="cls-10" transform="translate(22.01 32.96)">S<tspan class="cls-6" x="2.8" y="0">uga</tspan><tspan class="cls-11" x="11.1" y="0">r</tspan></text><text class="cls-12" transform="translate(7.42 71.03)">Cortadito</text></svg>