<svg xmlns="http://www.w3.org/2000/svg" viewBox="0 0 57.06 58.2"><defs><style>.cls-1,.cls-10,.cls-5{fill:#fff;}.cls-2{fill:#e3cfab;}.cls-3{fill:#321e15;}.cls-4{fill:#f9f8ed;}.cls-10,.cls-13,.cls-5{font-size:4.57px;font-family:Lato-Regular, Lato;}.cls-5{letter-spacing:0.06em;}.cls-6{letter-spacing:0.08em;}.cls-7{letter-spacing:0.08em;}.cls-8{letter-spacing:0.07em;}.cls-9{letter-spacing:0.08em;}.cls-10{letter-spacing:0.07em;}.cls-11{letter-spacing:0.08em;}.cls-12{letter-spacing:0.06em;}.cls-13{fill:#60462e;letter-spacing:0.07em;}.cls-14{letter-spacing:0.06em;}</style></defs><g id="OBJECTS"><path class="cls-1" d="M40.91,58.2H16.14A12.11,12.11,0,0,1,4,46.09L0,3.21A2.94,2.94,0,0,1,2.93,0H54.12A2.93,2.93,0,0,1,57,3.21L53,46.09A12.11,12.11,0,0,1,40.91,58.2Z"/><path class="cls-2" d="M52.6,4.32,51.15,19.7l-1.69,18v.1l-.75,8.06v.21a7.79,7.79,0,0,1-7.79,7.79H16.13a7.79,7.79,0,0,1-7.78-7.79v-.21L7.6,37.82v-.1L5.9,19.7,4.45,4.32Z"/><path class="cls-3" d="M49.46,37.82l-.76,8.06v.21a7.8,7.8,0,0,1-7.78,7.79H16.14a7.8,7.8,0,0,1-7.79-7.79v-.21L7.6,37.82Z"/><polygon class="cls-4" points="50.27 29.1 49.46 37.72 7.59 37.72 6.78 29.1 50.27 29.1"/><text class="cls-5" transform="translate(17.77 15.86)">S<tspan class="cls-6" x="2.74" y="0">t</tspan><tspan class="cls-7" x="4.74" y="0">eamed </tspan><tspan class="cls-8"><tspan x="5.68" y="5.49">M</tspan><tspan class="cls-9" x="10.25" y="5.49">ilk</tspan></tspan></text><text class="cls-10" transform="translate(18.22 47.29)">E<tspan class="cls-11" x="2.97" y="0">sp</tspan><tspan class="cls-12" x="8.24" y="0">r</tspan><tspan class="cls-7" x="10.18" y="0">esso</tspan></text><text class="cls-13" transform="translate(22.01 34.63)">S<tspan class="cls-9" x="2.8" y="0">uga</tspan><tspan class="cls-14" x="11.1" y="0">r</tspan></text></g></svg>