<svg xmlns="http://www.w3.org/2000/svg" viewBox="0 0 57.06 58.19"><defs><style>.cls-1,.cls-3{fill:#fff;}.cls-2{fill:#321e15;}.cls-3{font-size:4.57px;font-family:Lato-Regular, Lato;}.cls-3,.cls-7{letter-spacing:0.08em;}.cls-4{letter-spacing:0.07em;}.cls-5{letter-spacing:0.08em;}.cls-6{letter-spacing:0.06em;}</style></defs><g id="OBJECTS"><path class="cls-1" d="M40.92,58.19H16.14A12.11,12.11,0,0,1,4,46.08L0,3.21A2.94,2.94,0,0,1,2.94,0H54.12a2.94,2.94,0,0,1,2.93,3.21L53,46.08A12.11,12.11,0,0,1,40.92,58.19Z"/><path class="cls-2" d="M50.92,22.15,49.45,37.81h0l-.75,8.06v.21a7.79,7.79,0,0,1-7.79,7.78H16.14a7.79,7.79,0,0,1-7.79-7.78v-.21L7.6,37.82h0L6.13,22.15Z"/><text class="cls-3" transform="translate(25.7 40.98)">2x<tspan class="cls-4"><tspan x="-7.47" y="5.49">E</tspan><tspan class="cls-5" x="-4.5" y="5.49">sp</tspan><tspan class="cls-6" x="0.77" y="5.49">r</tspan><tspan class="cls-7" x="2.71" y="5.49">esso</tspan></tspan></text></g></svg>