<svg xmlns="http://www.w3.org/2000/svg" viewBox="0 0 57.06 58.19"><defs><style>.cls-1,.cls-8{fill:#fff;}.cls-2{fill:#321e15;}.cls-3{fill:#eee2cd;}.cls-4,.cls-8{font-size:4.57px;font-family:Lato-Regular, Lato;}.cls-4{fill:#60462e;letter-spacing:0.04em;}.cls-5{letter-spacing:0.08em;}.cls-6{letter-spacing:0.07em;}.cls-7{letter-spacing:0.08em;}.cls-8{letter-spacing:0.07em;}.cls-9{letter-spacing:0.08em;}.cls-10{letter-spacing:0.06em;}</style></defs><g id="OBJECTS"><path class="cls-1" d="M40.92,58.19H16.14A12.11,12.11,0,0,1,4,46.08L0,3.21A2.94,2.94,0,0,1,2.94,0H54.12a2.94,2.94,0,0,1,2.93,3.21L53,46.08A12.11,12.11,0,0,1,40.92,58.19Z"/><path class="cls-1" d="M52.61,4.32,51.16,19.7l-1.69,18v.1l-.75,8.06v.21a7.79,7.79,0,0,1-7.79,7.79H16.14a7.79,7.79,0,0,1-7.78-7.79v-.21l-.75-8.06v-.1l-1.69-18L4.46,4.32Z"/><path class="cls-2" d="M49.46,37.82l-.75,8.06v.21a7.8,7.8,0,0,1-7.79,7.78H16.14a7.8,7.8,0,0,1-7.79-7.78v-.21L7.6,37.82Z"/><polygon class="cls-3" points="51.16 19.7 49.47 37.72 7.59 37.72 5.91 19.7 51.16 19.7"/><text class="cls-4" transform="translate(19.44 26.86)">F<tspan class="cls-5" x="2.75" y="0">oamed</tspan><tspan class="cls-6"><tspan x="4" y="5.49">M</tspan><tspan class="cls-7" x="8.58" y="5.49">ilk</tspan></tspan></text><text class="cls-8" transform="translate(18.23 47.29)">E<tspan class="cls-9" x="2.97" y="0">sp</tspan><tspan class="cls-10" x="8.24" y="0">r</tspan><tspan class="cls-5" x="10.18" y="0">esso</tspan></text></g></svg>