<svg id="OBJECTS" xmlns="http://www.w3.org/2000/svg" viewBox="0 0 57.06 80"><defs><style>.cls-1,.cls-8{fill:#fff;}.cls-1{opacity:0.5;}.cls-2,.cls-4{fill:#321e15;}.cls-3{fill:#eee2cd;}.cls-4,.cls-8{font-size:4.57px;font-family:Lato-Regular, Lato;}.cls-4{letter-spacing:0.04em;}.cls-5{letter-spacing:0.08em;}.cls-6{letter-spacing:0.07em;}.cls-7{letter-spacing:0.08em;}.cls-8{letter-spacing:0.07em;}.cls-9{letter-spacing:0.08em;}.cls-10{letter-spacing:0.06em;}.cls-11{font-size:10px;fill:#936544;font-family:TrebuchetMS, Trebuchet MS;}</style></defs><title>_</title><path class="cls-1" d="M55.41,3,51.62,43.45A11.42,11.42,0,0,1,40.2,54.87H16.85A11.42,11.42,0,0,1,5.43,43.45L1.64,3A2.77,2.77,0,0,1,4.4,0H52.66A2.77,2.77,0,0,1,55.41,3Z"/><path class="cls-2" d="M49.46,36.15l-.76,8.07v.21a7.79,7.79,0,0,1-7.78,7.78H16.14a7.79,7.79,0,0,1-7.79-7.78v-.21L7.6,36.15Z"/><polygon class="cls-3" points="51.15 18.04 49.46 36.05 7.59 36.05 5.9 18.04 51.15 18.04"/><text class="cls-4" transform="translate(19.44 25.2)">F<tspan class="cls-5" x="2.75" y="0">oamed</tspan><tspan class="cls-6"><tspan x="4" y="5.49">M</tspan><tspan class="cls-7" x="8.58" y="5.49">ilk</tspan></tspan></text><text class="cls-8" transform="translate(18.22 45.63)">E<tspan class="cls-9" x="2.97" y="0">sp</tspan><tspan class="cls-10" x="8.24" y="0">r</tspan><tspan class="cls-5" x="10.18" y="0">esso</tspan></text><text class="cls-11" transform="translate(15.74 71.03)">Galão</text></svg>