<svg xmlns="http://www.w3.org/2000/svg" viewBox="0 0 57.06 58.19"><defs><style>.cls-1,.cls-3,.cls-7{fill:#fff;}.cls-2{fill:#6d5038;}.cls-3,.cls-7{font-size:4.57px;font-family:Lato-Regular, Lato;}.cls-3{letter-spacing:0.07em;}.cls-4{letter-spacing:0.06em;}.cls-5{letter-spacing:0.08em;}.cls-6{fill:#c3e9eb;}.cls-7{letter-spacing:0.06em;}.cls-8{letter-spacing:0.07em;}.cls-9{letter-spacing:0.07em;}.cls-10{letter-spacing:0.02em;}.cls-11{letter-spacing:0.07em;}.cls-12{letter-spacing:0.08em;}.cls-13{letter-spacing:0.08em;}.cls-14{letter-spacing:0.06em;}</style></defs><g id="OBJECTS"><path class="cls-1" d="M40.92,58.19H16.14A12.11,12.11,0,0,1,4,46.08L0,3.21A2.94,2.94,0,0,1,2.94,0H54.12a2.94,2.94,0,0,1,2.93,3.21L53,46.08A12.11,12.11,0,0,1,40.92,58.19Z"/><path class="cls-1" d="M52.6,4.32l-3.14,33.5-.75,8.06v.21a7.8,7.8,0,0,1-7.79,7.78H16.14a7.8,7.8,0,0,1-7.79-7.78v-.21L7.6,37.82,4.46,4.32Z"/><path class="cls-2" d="M49.46,37.82l-.75,8.06v.21a7.8,7.8,0,0,1-7.79,7.78H16.14a7.8,7.8,0,0,1-7.79-7.78v-.21L7.6,37.82Z"/><text class="cls-3" transform="translate(20.94 47.29)">Co<tspan class="cls-4" x="6.28" y="0">ff</tspan><tspan class="cls-5" x="9.62" y="0">ee</tspan></text><polygon class="cls-6" points="52.6 4.32 49.45 37.81 7.61 37.81 4.46 4.32 52.6 4.32"/><text class="cls-7" transform="translate(16.36 22.73)">H<tspan class="cls-8" x="3.79" y="0">o</tspan><tspan class="cls-5" x="6.7" y="0">t</tspan><tspan class="cls-9" x="8.71" y="0"> </tspan><tspan class="cls-10" x="10.18" y="0">W</tspan><tspan class="cls-11" x="15.02" y="0">a</tspan><tspan class="cls-12" x="17.63" y="0">t</tspan><tspan class="cls-13" x="19.63" y="0">e</tspan><tspan class="cls-14" x="22.41" y="0">r</tspan></text></g></svg>