<svg xmlns="http://www.w3.org/2000/svg" viewBox="0 0 57.06 58.19"><defs><style>.cls-1,.cls-10,.cls-5{fill:#fff;}.cls-2{fill:#efa42b;}.cls-3{fill:#321e15;}.cls-4{fill:#f9f8ed;}.cls-10,.cls-13,.cls-17,.cls-5{font-size:4.57px;font-family:Lato-Regular, Lato;}.cls-5{letter-spacing:0.08em;}.cls-6{letter-spacing:0.08em;}.cls-7{letter-spacing:0.05em;}.cls-8{letter-spacing:0.07em;}.cls-9{letter-spacing:0.06em;}.cls-10{letter-spacing:0.07em;}.cls-11{letter-spacing:0.08em;}.cls-12{letter-spacing:0.06em;}.cls-13,.cls-17{fill:#60462e;}.cls-13{letter-spacing:0.07em;}.cls-14{letter-spacing:0.08em;}.cls-15{letter-spacing:0.06em;}.cls-16{fill:#ededed;}.cls-17{letter-spacing:0.08em;}</style></defs><g id="OBJECTS"><path class="cls-1" d="M40.92,58.19H16.14A12.11,12.11,0,0,1,4,46.08L0,3.21A2.94,2.94,0,0,1,2.94,0H54.12a2.94,2.94,0,0,1,2.93,3.21L53,46.08A12.11,12.11,0,0,1,40.92,58.19Z"/><path class="cls-2" d="M51.78,13l-.63,6.67-1.69,18v.1l-.75,8.06v.21a7.79,7.79,0,0,1-7.79,7.79H16.13a7.79,7.79,0,0,1-7.78-7.79v-.21L7.6,37.82v-.1L5.9,19.7,5.27,13Z"/><path class="cls-3" d="M49.46,37.82l-.75,8.06v.21a7.8,7.8,0,0,1-7.79,7.78H16.14a7.8,7.8,0,0,1-7.79-7.78v-.21L7.6,37.82Z"/><polygon class="cls-4" points="50.27 29.09 49.47 37.72 7.59 37.72 6.79 29.09 50.27 29.09"/><text class="cls-5" transform="translate(18.68 22.86)">W<tspan class="cls-6" x="5.08" y="0">his</tspan><tspan class="cls-7" x="11.8" y="0">k</tspan><tspan class="cls-8" x="14.36" y="0">e</tspan><tspan class="cls-9" x="17.08" y="0">y</tspan></text><text class="cls-10" transform="translate(18.22 47.29)">E<tspan class="cls-11" x="2.97" y="0">sp</tspan><tspan class="cls-12" x="8.24" y="0">r</tspan><tspan class="cls-6" x="10.18" y="0">esso</tspan></text><text class="cls-13" transform="translate(22.01 34.62)">S<tspan class="cls-14" x="2.8" y="0">uga</tspan><tspan class="cls-15" x="11.1" y="0">r</tspan></text><polygon class="cls-16" points="52.6 4.32 51.78 13.03 5.28 13.03 4.46 4.32 52.6 4.32"/><text class="cls-17" transform="translate(21.09 9.58)">C<tspan class="cls-12" x="3.41" y="0">r</tspan><tspan class="cls-6" x="5.34" y="0">eam</tspan></text></g></svg>