<svg id="OBJECTS" xmlns="http://www.w3.org/2000/svg" viewBox="0 0 57.06 80"><defs><style>.cls-1,.cls-3{fill:#fff;}.cls-1{opacity:0.5;}.cls-2{fill:#321e15;}.cls-3{font-size:4.57px;font-family:Lato-Regular, Lato;letter-spacing:0.07em;}.cls-4{letter-spacing:0.08em;}.cls-5{letter-spacing:0.06em;}.cls-6{letter-spacing:0.08em;}.cls-7{font-size:10px;fill:#936544;font-family:TrebuchetMS, Trebuchet MS;}</style></defs><title>_</title><path class="cls-1" d="M55.41,3,51.62,43.45A11.42,11.42,0,0,1,40.2,54.87H16.85A11.42,11.42,0,0,1,5.43,43.45L1.64,3A2.77,2.77,0,0,1,4.4,0H52.66A2.77,2.77,0,0,1,55.41,3Z"/><path class="cls-2" d="M49.46,36.15l-.75,8.06v.21a7.79,7.79,0,0,1-7.79,7.79H16.14a7.79,7.79,0,0,1-7.78-7.79v-.21L7.6,36.15Z"/><text class="cls-3" transform="translate(18.23 45.62)">E<tspan class="cls-4" x="2.97" y="0">sp</tspan><tspan class="cls-5" x="8.24" y="0">r</tspan><tspan class="cls-6" x="10.18" y="0">esso</tspan></text><text class="cls-7" transform="translate(15.34 71.03)">Lungo</text></svg>