<svg id="OBJECTS" xmlns="http://www.w3.org/2000/svg" viewBox="0 0 57.06 80"><defs><style>.cls-1{font-size:10px;fill:#936544;font-family:TrebuchetMS, Trebuchet MS;}.cls-2,.cls-5{fill:#fff;}.cls-2{opacity:0.5;}.cls-3,.cls-9{fill:#321e15;}.cls-4{fill:#ededed;}.cls-5,.cls-9{font-size:4.57px;font-family:Lato-Regular, Lato;}.cls-5{letter-spacing:0.07em;}.cls-6{letter-spacing:0.08em;}.cls-7{letter-spacing:0.06em;}.cls-8{letter-spacing:0.08em;}.cls-9{letter-spacing:0.04em;}</style></defs><title>_</title><text class="cls-1" transform="translate(5.95 71.03)">Macchiato</text><path class="cls-2" d="M55.41,3,51.62,43.45A11.42,11.42,0,0,1,40.2,54.87H16.85A11.42,11.42,0,0,1,5.43,43.45L1.64,3A2.77,2.77,0,0,1,4.4,0H52.66A2.77,2.77,0,0,1,55.41,3Z"/><path class="cls-3" d="M49.46,36.15l-.76,8.07v.21a7.79,7.79,0,0,1-7.78,7.78H16.14a7.79,7.79,0,0,1-7.79-7.78v-.21L7.6,36.15Z"/><polygon class="cls-4" points="50.28 27.43 49.47 36.05 7.6 36.05 6.79 27.43 50.28 27.43"/><text class="cls-5" transform="translate(18.22 45.63)">E<tspan class="cls-6" x="2.97" y="0">sp</tspan><tspan class="cls-7" x="8.24" y="0">r</tspan><tspan class="cls-8" x="10.18" y="0">esso</tspan></text><text class="cls-9" transform="translate(22.29 32.96)">F<tspan class="cls-8" x="2.75" y="0">oam</tspan></text></svg>