<svg xmlns="http://www.w3.org/2000/svg" viewBox="0 0 57.06 58.19"><defs><style>.cls-1,.cls-10,.cls-13,.cls-5{fill:#fff;}.cls-2{fill:#e3cfab;}.cls-3{fill:#321e15;}.cls-4{fill:#8a501c;}.cls-10,.cls-13,.cls-17,.cls-5{font-size:4.57px;font-family:Lato-Regular, Lato;}.cls-5{letter-spacing:0.06em;}.cls-6{letter-spacing:0.08em;}.cls-13,.cls-7{letter-spacing:0.08em;}.cls-8{letter-spacing:0.07em;}.cls-9{letter-spacing:0.08em;}.cls-10{letter-spacing:0.07em;}.cls-11{letter-spacing:0.08em;}.cls-12{letter-spacing:0.06em;}.cls-14{letter-spacing:0.07em;}.cls-15{letter-spacing:0.07em;}.cls-16{fill:#ededed;}.cls-17{fill:#60462e;letter-spacing:0.04em;}</style></defs><g id="OBJECTS"><path class="cls-1" d="M54.12,0H2.93A2.94,2.94,0,0,0,0,3.21L4,46.09A12.11,12.11,0,0,0,16.14,58.2H40.91A12.11,12.11,0,0,0,53,46.09L57,3.21A2.94,2.94,0,0,0,54.12,0Zm-3,19.7-.88,9.4H6.78L5.9,19.7,5.27,13H51.78Z"/><polygon class="cls-2" points="51.78 13.03 51.16 19.7 50.27 29.1 6.79 29.1 5.91 19.7 5.28 13.03 51.78 13.03"/><path class="cls-2" d="M50.27,29.1l-.81,8.62v.1l-.75,8.06v.21a7.76,7.76,0,0,1-2.28,5.5,7.62,7.62,0,0,1-1.79,1.34h0l-.67.32a0,0,0,0,0,0,0,7.81,7.81,0,0,1-3,.61H16.13a7.8,7.8,0,0,1-7.78-7.79v-.21L7.6,37.82v-.1L6.78,29.1Z"/><path class="cls-3" d="M49.46,37.81l-.75,8.07v.21a7.8,7.8,0,0,1-7.79,7.78H16.14a7.8,7.8,0,0,1-7.79-7.78v-.21L7.6,37.81Z"/><polygon class="cls-4" points="50.27 29.1 49.47 37.72 7.59 37.72 6.79 29.1 50.27 29.1"/><text class="cls-5" transform="translate(17.77 19.86)">S<tspan class="cls-6" x="2.74" y="0">t</tspan><tspan class="cls-7" x="4.74" y="0">eamed </tspan><tspan class="cls-8"><tspan x="5.68" y="5.49">M</tspan><tspan class="cls-9" x="10.25" y="5.49">ilk</tspan></tspan></text><text class="cls-10" transform="translate(18.23 47.29)">E<tspan class="cls-11" x="2.97" y="0">sp</tspan><tspan class="cls-12" x="8.24" y="0">r</tspan><tspan class="cls-7" x="10.18" y="0">esso</tspan></text><text class="cls-13" transform="translate(16.74 34.62)">Cho<tspan class="cls-14" x="9.3" y="0">c</tspan><tspan x="11.8" y="0">ol</tspan><tspan class="cls-15" x="16.21" y="0">a</tspan><tspan class="cls-6" x="18.81" y="0">t</tspan><tspan x="20.81" y="0">e</tspan></text><polygon class="cls-16" points="52.6 4.32 51.78 13.03 5.28 13.03 4.46 4.32 52.6 4.32"/><text class="cls-17" transform="translate(22.29 10.36)">F<tspan class="cls-7" x="2.75" y="0">oam</tspan></text></g></svg>