<svg id="OBJECTS" xmlns="http://www.w3.org/2000/svg" viewBox="0 0 57.06 80"><defs><style>.cls-1,.cls-10,.cls-13{fill:#fff;}.cls-1{opacity:0.5;}.cls-2{fill:#e3cfab;}.cls-3,.cls-5{fill:#321e15;}.cls-16,.cls-4{fill:#936544;}.cls-10,.cls-13,.cls-5{font-size:4.57px;font-family:Lato-Regular, Lato;}.cls-5{letter-spacing:0.06em;}.cls-6{letter-spacing:0.08em;}.cls-13,.cls-7{letter-spacing:0.08em;}.cls-8{letter-spacing:0.07em;}.cls-9{letter-spacing:0.08em;}.cls-10{letter-spacing:0.07em;}.cls-11{letter-spacing:0.08em;}.cls-12{letter-spacing:0.06em;}.cls-14{letter-spacing:0.07em;}.cls-15{letter-spacing:0.07em;}.cls-16{font-size:10px;font-family:TrebuchetMS, Trebuchet MS;}</style></defs><title>_</title><path class="cls-1" d="M52.66,0H4.4A2.77,2.77,0,0,0,1.64,3L5.43,43.45A11.42,11.42,0,0,0,16.85,54.87H40.2A11.42,11.42,0,0,0,51.62,43.45L55.41,3A2.77,2.77,0,0,0,52.66,0ZM51.15,18l-.88,9.4H6.78L5.9,18l-.63-6.67H51.78Z"/><polygon class="cls-2" points="51.78 11.37 51.15 18.04 50.27 27.44 6.78 27.44 5.9 18.04 5.27 11.37 51.78 11.37"/><path class="cls-2" d="M50.27,27.44l-.81,8.62v.1l-.75,8.06v.21a7.76,7.76,0,0,1-2.28,5.5,7.62,7.62,0,0,1-1.79,1.34h0L44,51.6h0a7.81,7.81,0,0,1-3,.61H16.13a7.8,7.8,0,0,1-7.78-7.79v-.21L7.6,36.16v-.1l-.81-8.62Z"/><path class="cls-3" d="M49.45,36.15l-.75,8.07v.2a7.79,7.79,0,0,1-7.79,7.79H16.14a7.79,7.79,0,0,1-7.79-7.79v-.2L7.6,36.15Z"/><polygon class="cls-4" points="50.27 27.44 49.46 36.06 7.59 36.06 6.78 27.44 50.27 27.44"/><text class="cls-5" transform="translate(17.76 18.2)">S<tspan class="cls-6" x="2.74" y="0">t</tspan><tspan class="cls-7" x="4.74" y="0">eamed </tspan><tspan class="cls-8"><tspan x="5.68" y="5.49">M</tspan><tspan class="cls-9" x="10.25" y="5.49">ilk</tspan></tspan></text><text class="cls-10" transform="translate(18.22 45.63)">E<tspan class="cls-11" x="2.97" y="0">sp</tspan><tspan class="cls-12" x="8.24" y="0">r</tspan><tspan class="cls-7" x="10.18" y="0">esso</tspan></text><text class="cls-13" transform="translate(16.73 32.96)">Cho<tspan class="cls-14" x="9.3" y="0">c</tspan><tspan x="11.8" y="0">ol</tspan><tspan class="cls-15" x="16.21" y="0">a</tspan><tspan class="cls-6" x="18.81" y="0">t</tspan><tspan x="20.81" y="0">e</tspan></text><text class="cls-16" transform="translate(14.46 71.03)">Mocha</text></svg>