<svg id="OBJECTS" xmlns="http://www.w3.org/2000/svg" viewBox="0 0 57.06 80"><defs><style>.cls-1,.cls-2,.cls-4,.cls-9{fill:#fff;}.cls-1{opacity:0.5;}.cls-3{fill:#321e15;}.cls-4,.cls-9{font-size:4.57px;font-family:Lato-Regular, Lato;}.cls-4{letter-spacing:0.07em;}.cls-5{letter-spacing:0.08em;}.cls-6{letter-spacing:0.06em;}.cls-7{letter-spacing:0.08em;}.cls-8{fill:#472210;}.cls-9{letter-spacing:0.07em;}.cls-10{letter-spacing:0.06em;}.cls-11{font-size:10px;fill:#936544;font-family:TrebuchetMS, Trebuchet MS;}.cls-12{letter-spacing:-0.04em;}</style></defs><title>_</title><path class="cls-1" d="M55.41,3,51.62,43.45A11.42,11.42,0,0,1,40.2,54.87H16.85A11.42,11.42,0,0,1,5.43,43.45L1.64,3A2.77,2.77,0,0,1,4.4,0H52.66A2.77,2.77,0,0,1,55.41,3Z"/><path class="cls-2" d="M52.6,2.66,49.45,36.15l-.75,8.07v.2a7.79,7.79,0,0,1-7.78,7.79H16.14a7.79,7.79,0,0,1-7.79-7.79v-.2L7.6,36.15,4.45,2.66Z"/><path class="cls-3" d="M49.45,36.15l-.75,8.07v.2a7.79,7.79,0,0,1-7.78,7.79H16.14a7.79,7.79,0,0,1-7.79-7.79v-.2L7.6,36.15Z"/><text class="cls-4" transform="translate(18.22 45.63)">E<tspan class="cls-5" x="2.97" y="0">sp</tspan><tspan class="cls-6" x="8.24" y="0">r</tspan><tspan class="cls-7" x="10.18" y="0">esso</tspan></text><polygon class="cls-8" points="52.6 2.65 49.45 36.15 7.6 36.15 4.45 2.65 52.6 2.65"/><text class="cls-9" transform="translate(20.94 21.07)">Co<tspan class="cls-10" x="6.28" y="0">ff</tspan><tspan class="cls-7" x="9.62" y="0">ee</tspan></text><text class="cls-11" transform="translate(10.93 71.03)"><tspan class="cls-12">R</tspan><tspan x="5.42" y="0">ed Eye</tspan></text></svg>